<mxfile host="app.diagrams.net" modified="2023-11-14T09:14:11.225Z" agent="Mozilla/5.0 (X11; Linux x86_64) AppleWebKit/537.36 (KHTML, like Gecko) Chrome/114.0.0.0 Safari/537.36" version="22.1.0" etag="fzoMeLDlEuug71zDVLz2" type="github">
  <diagram name="Page-1" id="02_yGU3cP5rYv0bAsNIV">
    <mxGraphModel>
      <root>
        <mxCell id="0" />
        <mxCell id="1" parent="0" />
      </root>
    </mxGraphModel>
  </diagram>
</mxfile>
